# xmcd
#
# Track frame offsets:
#	183
#	12008
#	30125
#	40880
#	52195
#	65088
#	80245
#	93698
#	106478
#	118628
#	132763
#	143088
#
# Disc length: 2083 seconds
#
# Revision: 1
# Processed by: cddbd v1.5PL3 Copyright (c) Steve Scherf et al.
# Submitted via: CDRider 2.0
#
DISCID=a308210c
DTITLE=Roy oRBINSON - Rarities - disk 1
DYEAR=1900
DGENRE=Country
TTITLE0=Roy Orbison - Twinkle Toes
TTITLE1=Roy Orbison - Harlem Woman
TTITLE2=Roy Orbison - Lonesome Number 1
TTITLE3=Roy Orbison - I Fought The Law
TTITLE4=Roy Orbison - Sugar Man
TTITLE5=Roy Orbison - Run Baby Run
TTITLE6=Roy Orbison - Remember The Good
TTITLE7=Roy Orbison - Run The Engines Up High
TTITLE8=Roy Orbison - Shy Away
TTITLE9=Roy Orbison - Sweet Dreams
TTITLE10=Roy Orbison - Beaujolais
TTITLE11=Roy Orbison - I Can't Stop Loving You
EXTD=
EXTT0=
EXTT1=
EXTT2=
EXTT3=
EXTT4=
EXTT5=
EXTT6=
EXTT7=
EXTT8=
EXTT9=
EXTT10=
EXTT11=
PLAYORDER=
